<svg version="1.1" viewBox="0.0 0.0 536.4251968503937 483.6036745406824" fill="none" stroke="none" stroke-linecap="square" stroke-miterlimit="10" xmlns:xlink="http://www.w3.org/1999/xlink" xmlns="http://www.w3.org/2000/svg"><clipPath id="p.0"><path d="m0 0l536.4252 0l0 483.60367l-536.4252 0l0 -483.60367z" clip-rule="nonzero"/></clipPath><g clip-path="url(#p.0)"><path fill="#000000" fill-opacity="0.0" d="m0 0l536.4252 0l0 483.60367l-536.4252 0z" fill-rule="evenodd"/><path fill="#000000" fill-opacity="0.0" d="m0 227.5433l0 0c0 -125.66869 112.422356 -227.5433 251.10236 -227.5433l0 0c138.68002 0 251.10236 101.87461 251.10236 227.5433l0 0c0 125.6687 -112.42233 227.5433 -251.10236 227.5433l0 0c-138.68 0 -251.10236 -101.8746 -251.10236 -227.5433z" fill-rule="evenodd"/><path stroke="#e51636" stroke-width="3.0" stroke-linejoin="round" stroke-linecap="butt" d="m0 227.5433l0 0c0 -125.66869 112.422356 -227.5433 251.10236 -227.5433l0 0c138.68002 0 251.10236 101.87461 251.10236 227.5433l0 0c0 125.6687 -112.42233 227.5433 -251.10236 227.5433l0 0c-138.68 0 -251.10236 -101.8746 -251.10236 -227.5433z" fill-rule="evenodd"/><path fill="#000000" fill-opacity="0.0" d="m16.0 243.5433l0 0c0 -125.66869 112.42236 -227.5433 251.10236 -227.5433l0 0c138.68002 0 251.10236 101.87461 251.10236 227.5433l0 0c0 125.6687 -112.42233 227.5433 -251.10236 227.5433l0 0c-138.68 0 -251.10236 -101.8746 -251.10236 -227.5433z" fill-rule="evenodd"/><path stroke="#e51636" stroke-width="2.0" stroke-linejoin="round" stroke-linecap="butt" d="m16.0 243.5433l0 0c0 -125.66869 112.42236 -227.5433 251.10236 -227.5433l0 0c138.68002 0 251.10236 101.87461 251.10236 227.5433l0 0c0 125.6687 -112.42233 227.5433 -251.10236 227.5433l0 0c-138.68 0 -251.10236 -101.8746 -251.10236 -227.5433z" fill-rule="evenodd"/><path fill="#000000" fill-opacity="0.0" d="m32.0 259.5433l0 0c0 -125.6687 112.42236 -227.5433 251.10236 -227.5433l0 0c138.68002 0 251.10236 101.8746 251.10236 227.5433l0 0c0 125.6687 -112.42233 227.5433 -251.10236 227.5433l0 0c-138.68 0 -251.10236 -101.8746 -251.10236 -227.5433z" fill-rule="evenodd"/><path stroke="#e51636" stroke-width="1.0" stroke-linejoin="round" stroke-linecap="butt" d="m32.0 259.5433l0 0c0 -125.6687 112.42236 -227.5433 251.10236 -227.5433l0 0c138.68002 0 251.10236 101.8746 251.10236 227.5433l0 0c0 125.6687 -112.42233 227.5433 -251.10236 227.5433l0 0c-138.68 0 -251.10236 -101.8746 -251.10236 -227.5433z" fill-rule="evenodd"/></g></svg>